<svg width="70" height="40" viewBox="0 0 70 40" fill="none" xmlns="http://www.w3.org/2000/svg">
<mask id="path-1-inside-1_5563_4" fill="white">
<rect width="70" height="40" rx="2"/>
</mask>
<rect width="70" height="40" rx="2" stroke="black" stroke-width="6" mask="url(#path-1-inside-1_5563_4)"/>
<path fill-rule="evenodd" clip-rule="evenodd" d="M33.4586 20.25C33.4586 26.8426 34.6509 31.0835 35.5002 32.5C36.3495 31.0835 37.5418 26.8426 37.5418 20.25C37.5418 13.6574 36.3495 9.41645 35.5002 8C34.6509 9.41645 33.4586 13.6574 33.4586 20.25Z" fill="black"/>
<path fill-rule="evenodd" clip-rule="evenodd" d="M30.8648 31.9154C29.4459 27.3697 29.3744 21.3046 29.3744 20.2496C29.3744 19.1967 29.4459 13.1316 30.8648 8.58383C26.4038 10.471 23.2495 14.9852 23.2495 20.2496C23.2495 25.514 26.4038 30.0303 30.8648 31.9154Z" fill="black"/>
<path fill-rule="evenodd" clip-rule="evenodd" d="M59.4197 18.7825L54.7648 13.8712C52.4148 11.3934 49.6811 9.4558 46.7125 8.05826C49.8587 11.1244 51.833 15.4494 51.833 20.2494C51.833 25.0494 49.8587 29.3744 46.7146 32.4406C49.6811 31.043 52.4148 29.1054 54.7648 26.6277L59.4197 21.7163C60.1935 20.9009 60.1935 19.5979 59.4197 18.7825Z" fill="black"/>
<path fill-rule="evenodd" clip-rule="evenodd" d="M40.1356 8.58447C41.5545 13.1301 41.626 19.1953 41.626 20.2502C41.626 21.3031 41.5545 27.3682 40.1356 31.916C44.5966 30.0288 47.7509 25.5147 47.7509 20.2502C47.7509 14.9858 44.5966 10.4696 40.1356 8.58447Z" fill="black"/>
<path fill-rule="evenodd" clip-rule="evenodd" d="M19.1671 20.2501C19.1671 15.4501 21.1413 11.1251 24.2875 8.0589C21.319 9.45644 18.5852 11.3941 16.2353 13.8718L11.5803 18.7832C10.8066 19.5986 10.8066 20.9015 11.5803 21.7169L16.2353 26.6304C18.5852 29.106 21.319 31.0437 24.2875 32.4412C21.1413 29.375 19.1671 25.05 19.1671 20.2501Z" fill="black"/>
</svg>
